<?xml version="1.0" encoding="UTF-8"?>
<svg width="20px" height="20px" viewBox="0 0 20 20" version="1.1" xmlns="http://www.w3.org/2000/svg" xmlns:xlink="http://www.w3.org/1999/xlink">
    <!-- Generator: Sketch 59 (86127) - https://sketch.com -->
    <title>d-icon-anchor</title>
    <desc>Created with Sketch.</desc>
    <g id="d-icon-anchor" stroke="none" stroke-width="1" fill="none" fill-rule="evenodd">
        <path d="M8.89147095,7.22087211 C6.74806721,7.22087211 5.00258206,8.95978958 5.00258206,11.104853 L5.00258206,15.5591134 C5.00258206,17.6919479 6.74369692,19.4430943 8.89147095,19.4430943 C11.0348747,19.4430943 12.7803598,17.7041769 12.7803598,15.5591134 L12.7803598,14.90107 C12.7803598,14.3449554 12.33066,13.8971255 11.7732798,13.9008316 L11.5652177,13.902215 C11.0090227,13.9059132 10.5581376,14.3579863 10.5581376,14.9028156 L10.5581376,15.5523436 C10.5581376,16.4738465 9.81836291,17.2208721 8.89147095,17.2208721 C7.97099637,17.2208721 7.22480428,16.4751061 7.22480428,15.5523436 L7.22480428,11.1116228 C7.22480428,10.19012 7.96457899,9.44309433 8.89147095,9.44309433 C9.35168969,9.44309433 9.76834132,9.62952081 10.0699458,9.93128616 L11.6397568,8.36147519 C10.936131,7.65800642 9.96455763,7.22087211 8.89147095,7.22087211 Z M14.9974179,8.88728265 L14.9974179,4.43302221 C14.9974179,2.30018777 13.2563031,0.549041319 11.1085291,0.549041319 C8.96512531,0.549041319 7.21964016,2.28795879 7.21964016,4.43302221 L7.21964016,5.11594977 C7.21964016,5.66608437 7.66933999,6.11205661 8.22672024,6.11205662 L8.43478231,6.11205663 C8.99097727,6.11205665 9.44186238,5.655103 9.44186238,5.11996606 L9.44186238,4.43979201 C9.44186238,3.51828918 10.1816371,2.77126354 11.1085291,2.77126354 C12.0290036,2.77126354 12.7751957,3.51702957 12.7751957,4.43979201 L12.7751957,8.88051285 C12.7751957,9.80201568 12.035421,10.5490413 11.1085291,10.5490413 C10.6483103,10.5490413 10.2316587,10.3626148 9.93005422,10.0608495 L8.36024325,11.6306605 C9.06386901,12.3341292 10.0354424,12.7712635 11.1085291,12.7712635 C13.2519328,12.7712635 14.9974179,11.0323461 14.9974179,8.88728265 Z" id="Rectangle-6-Copy-4" fill="#FFFFFF" transform="translate(10.000000, 9.996068) scale(-1, -1) rotate(45.000000) translate(-10.000000, -9.996068) "></path>
    </g>
</svg>