<svg width="20px" height="20px" viewBox="0 0 20 20" version="1.1" xmlns="http://www.w3.org/2000/svg" xmlns:xlink="http://www.w3.org/1999/xlink">
    <title>Pinterest</title>
    <g>
        <circle class="item-sharing-link" cx="10" cy="10" r="9"></circle>
        <path class="item-sharing-link-inner" d="M2,10.0001147 C2,13.2761151 3.96995757,16.0902419 6.78867102,17.3276 C6.76619654,16.7689485 6.78465772,16.0983832 6.92798991,15.4905401 C7.08164201,14.8410733 7.95734434,11.1314069 7.95734434,11.1314069 C7.95734434,11.1314069 7.70175439,10.620571 7.70175439,9.86549708 C7.70175439,8.67996789 8.38894622,7.79451898 9.24469671,7.79451898 C9.97225089,7.79451898 10.3238161,8.3411306 10.3238161,8.9956427 C10.3238161,9.72721018 9.85735581,10.8213508 9.61736039,11.8347667 C9.41692466,12.6834079 10.042885,13.3755303 10.8800596,13.3755303 C12.3958262,13.3755303 13.4166953,11.4288499 13.4166953,9.12211902 C13.4166953,7.36865038 12.2357528,6.05630088 10.087834,6.05630088 C7.66104804,6.05630088 6.14929481,7.8660704 6.14929481,9.88762757 C6.14929481,10.584566 6.35477583,11.0761381 6.67664259,11.4567137 C6.8245614,11.6315789 6.84520124,11.7018691 6.79153767,11.9025341 C6.75323931,12.0497649 6.66517601,12.4041968 6.62859764,12.5446623 C6.57527806,12.7472767 6.41119138,12.8196308 6.22807018,12.7448687 C5.11030845,12.2886137 4.58972595,11.0644422 4.58972595,9.68845316 C4.58972595,7.41589267 6.50636395,4.69086114 10.3074189,4.69086114 C13.3617704,4.69086114 15.3719757,6.90115812 15.3719757,9.27370714 C15.3719757,12.4121087 13.6272216,14.7566793 11.0553836,14.7566793 C10.1917211,14.7566793 9.3793143,14.2897603 9.10102053,13.7595459 C9.10102053,13.7595459 8.63650957,15.6026832 8.53824103,15.9586057 C8.36853572,16.5753927 8.03657837,17.1918358 7.73294347,17.6725146 C8.45258571,17.8847609 9.21247563,18.0004587 10.000344,18.0004587 C14.4180713,18.0004587 18,14.4187593 18,10.0001147 C18,5.58181401 14.4180713,2 10.000344,2 C5.58204334,2 2,5.58181401 2,10.0001147 Z"></path>
    </g>
</svg>