<?xml version="1.0" encoding="UTF-8"?>
<svg width="1000px" height="1000px" viewBox="0 0 1000 1000" version="1.1" xmlns="http://www.w3.org/2000/svg" xmlns:xlink="http://www.w3.org/1999/xlink">
    <title>d-background-graphic-gold</title>
    <defs>
        <linearGradient x1="11.4054687%" y1="3.48984375%" x2="8.12208627e-05%" y2="74.636517%" id="linearGradient-1">
            <stop stop-color="#BDA575" offset="0%"></stop>
            <stop stop-color="#C9B182" offset="37.1223813%"></stop>
            <stop stop-color="#BDA575" offset="100%"></stop>
        </linearGradient>
        <linearGradient x1="12.7053737%" y1="2.63855609%" x2="7.21053694%" y2="88.8333297%" id="linearGradient-2">
            <stop stop-color="#BDA575" offset="0%"></stop>
            <stop stop-color="#C3A872" offset="57.2990529%"></stop>
            <stop stop-color="#BDA575" offset="100%"></stop>
        </linearGradient>
        <linearGradient x1="50%" y1="0%" x2="50%" y2="100%" id="linearGradient-3">
            <stop stop-color="#BDA575" offset="0%"></stop>
            <stop stop-color="#D1B988" offset="100%"></stop>
        </linearGradient>
        <linearGradient x1="50%" y1="0%" x2="50%" y2="98.989292%" id="linearGradient-4">
            <stop stop-color="#D5BF93" offset="0%"></stop>
            <stop stop-color="#BDA575" offset="100%"></stop>
        </linearGradient>
    </defs>
    <g id="d-background-graphic-gold" stroke="none" stroke-width="1" fill="none" fill-rule="evenodd">
        <rect fill="#DDCAA3" x="0" y="0" width="1000" height="1000"></rect>
        <rect id="Rectangle" fill="#0A0A0A" fill-rule="nonzero" x="0" y="0" width="1000" height="1000"></rect>
        <rect id="Rectangle" fill="#0A0A0A" fill-rule="nonzero" x="1.13686838e-13" y="0" width="1000" height="1000"></rect>
        <polygon id="Path-6" fill="url(#linearGradient-1)" fill-rule="nonzero" points="1001 -1 -1 1001 -1 -1"></polygon>
        <polygon id="Path-6" fill="url(#linearGradient-2)" fill-rule="nonzero" transform="translate(499.500000, 499.500000) rotate(180.000000) translate(-499.500000, -499.500000) " points="1001 -2 -2 1001 -2 -2"></polygon>
        <polygon id="Path-7" fill="url(#linearGradient-3)" fill-rule="nonzero" points="500 1.13686838e-13 1000 500 1000 1.20757556e-13"></polygon>
        <polygon id="Path-8" fill="url(#linearGradient-4)" fill-rule="nonzero" points="1.13686838e-13 500 500 1000 1.13686838e-13 1000"></polygon>
        <polygon id="Rectangle" fill="#FFF2D8" opacity="0.395647321" points="-1 -1 1001 -1 1001 1001 -1 1001"></polygon>
    </g>
</svg>