<svg xmlns="http://www.w3.org/2000/svg" viewBox="0 0 72 72"><defs/><path fill="#595959" fill-rule="evenodd" d="M36 1a35 35 0 110 70 35 35 0 010-70zM25.1 42.7a4 4 0 00-2.9 1.2 4 4 0 00-1.2 3 4 4 0 001.2 2.9 4 4 0 003 1.2 4 4 0 002.9-1.2 4 4 0 001.2-3A4 4 0 0028 44a4 4 0 00-3-1.2zm-2-24.7c-.3 0-.6 0-.8.3a1 1 0 00-.3.7v4.2c0 .2 0 .5.3.7.2.2.4.3.7.3A25.9 25.9 0 0147.8 49c0 .3.1.5.3.7.2.2.4.3.7.3H53c.2 0 .5-.1.7-.3.2-.2.3-.5.3-.8a31.6 31.6 0 00-13-24.6A30.9 30.9 0 0023 18zm0 12.4a1 1 0 00-.8.3 1 1 0 00-.3.7v4.2c0 .3 0 .5.3.7.2.2.4.3.7.3a13 13 0 018.5 4 13 13 0 013.9 8.4 1 1 0 001 1h4.2c.2 0 .5-.1.7-.3.2-.2.3-.5.3-.8a19 19 0 00-5.7-12.8A19 19 0 0023 30.4z"/></svg>