<?xml version="1.0" encoding="UTF-8"?>
<svg width="72px" height="72px" viewBox="0 0 72 72" version="1.1" xmlns="http://www.w3.org/2000/svg" xmlns:xlink="http://www.w3.org/1999/xlink">
    <!-- Generator: Sketch 62 (91390) - https://sketch.com -->
    <title>d-icon-top</title>
    <desc>Created with Sketch.</desc>
    <g id="d-icon-top" stroke="none" stroke-width="1" fill="none" fill-rule="evenodd">
        <path d="M36,1 C55.3299662,1 71,16.6700338 71,36 C71,55.3299662 55.3299662,71 36,71 C16.6700338,71 1,55.3299662 1,36 C1,16.6700338 16.6700338,1 36,1 Z M36.6389089,17.2412439 C36.2140399,16.8883915 35.5835722,16.9467725 35.2307198,17.3716415 L35.2307198,17.3716415 L23.2541977,31.7925523 C23.0469722,32.0420723 22.9736367,32.3765993 23.057474,32.6899265 C23.2002277,33.223443 23.748453,33.5402188 24.2819695,33.3974651 L24.2819695,33.3974651 L31.999479,31.3315112 L32,50 C32,52.209139 33.790861,54 36,54 C38.209139,54 40,52.209139 40,50 L40,50 L39.999479,31.3315112 L47.7180062,33.3974145 C48.0313363,33.4812565 48.3658684,33.4079219 48.6153914,33.2006938 C49.0402604,32.8478414 49.0986414,32.2173737 48.745789,31.7925047 L48.745789,31.7925047 L36.7693065,17.3716415 C36.7299497,17.3242521 36.6862983,17.2806006 36.6389089,17.2412439 Z" id="Combined-Shape" fill="#595959"></path>
    </g>
</svg>