<?xml version="1.0" encoding="UTF-8"?>
<svg width="72px" height="72px" viewBox="0 0 72 72" version="1.1" xmlns="http://www.w3.org/2000/svg" xmlns:xlink="http://www.w3.org/1999/xlink">
    <!-- Generator: Sketch 62 (91390) - https://sketch.com -->
    <title>d-icon-feed</title>
    <desc>Created with Sketch.</desc>
    <g id="d-icon-feed" stroke="none" stroke-width="1" fill="none" fill-rule="evenodd">
        <path d="M36,1 C55.3299662,1 71,16.6700338 71,36 C71,55.3299662 55.3299662,71 36,71 C16.6700338,71 1,55.3299662 1,36 C1,16.6700338 16.6700338,1 36,1 Z M25.1328415,42.7324576 C23.9923378,42.7324576 23.0183013,43.1357109 22.2109582,43.9432357 C21.4038412,44.7507605 21,45.7254685 21,46.8658894 C21,48.006989 21.4038412,48.9816971 22.2109582,49.7892219 C23.0181882,50.5959548 23.9923378,51 25.1328415,51 C26.2737975,51 27.2474947,50.5959548 28.0551772,49.7892219 C28.8624072,48.9818102 29.2659092,48.006989 29.2659092,46.8658894 C29.2659092,45.7254685 28.8620679,44.7507605 28.0551772,43.9432357 C27.247834,43.1357109 26.2737975,42.7324576 25.1328415,42.7324576 Z M23.0589003,18.0030153 C22.7572917,17.9811842 22.5099658,18.0778971 22.3162441,18.2931541 C22.1011487,18.5087505 21.9933747,18.756132 21.9933747,19.0359774 L21.9933747,19.0359774 L21.9933747,23.1697486 C21.9933747,23.449594 22.0902921,23.6866821 22.2837876,23.8804473 C22.4775092,24.0739863 22.7142047,24.1817845 22.9939872,24.2032763 C27.3853504,24.3538317 31.4531656,25.5539771 35.1986769,27.8040517 C38.9441882,30.0534477 41.9415019,33.0513226 44.1908443,36.7976765 C46.4398474,40.5439172 47.639949,44.6132132 47.7908099,49.0051118 C47.8124099,49.2852965 47.9200708,49.5222715 48.1135662,49.7158105 C48.3070617,49.9093495 48.5438703,50.0061756 48.8236527,50.0061756 L48.8236527,50.0061756 L52.9566073,50.0061756 C53.236616,50.0061756 53.4836026,49.8984905 53.6988111,49.6833466 C53.9368637,49.4898076 54.0331025,49.2427655 53.9900156,48.9408627 C53.8829202,45.6258146 53.2795898,42.422863 52.1823993,39.3331391 C51.0844171,36.2440939 49.5824807,33.4449612 47.677947,30.9366461 C45.7736395,28.4283309 43.567271,26.2212398 41.0594069,24.3161646 C38.5512035,22.41075 35.7529266,20.9090412 32.6642369,19.8113776 C29.5755471,18.7129222 26.373429,18.1104741 23.0589003,18.0030153 Z M23.0907914,30.4034241 C22.7891828,30.3821585 22.5308873,30.4788715 22.3156787,30.6941285 C22.1005832,30.9092723 21.9928093,31.1569932 21.9928093,31.4369517 L21.9928093,31.4369517 L21.9928093,35.5704967 C21.9928093,35.8506815 22.0842984,36.0876564 22.2673896,36.2811954 C22.4500286,36.4747344 22.681522,36.5824195 22.9613044,36.6033457 C26.2765116,36.8403206 29.1175362,38.143174 31.4852829,40.5106616 C33.8531427,42.8796196 35.1553638,45.7217358 35.3920593,49.036897 C35.4134331,49.3171948 35.521207,49.5486272 35.7150418,49.7313072 C35.9087634,49.914779 36.1453458,50.0053838 36.4252414,50.0053838 L36.4252414,50.0053838 L40.5575174,50.0053838 C40.8376391,50.0053838 41.0854174,49.8984905 41.3005129,49.6833466 C41.5158345,49.4680897 41.6133173,49.2103016 41.591378,48.9088513 C41.3119349,43.9132603 39.4067226,39.6514434 35.8764199,36.1198941 C32.3463434,32.5891365 28.0845803,30.6832695 23.0907914,30.4034241 Z" id="Combined-Shape" fill="#595959"></path>
    </g>
</svg>