<?xml version="1.0" encoding="UTF-8"?>
<svg width="72px" height="72px" viewBox="0 0 72 72" version="1.1" xmlns="http://www.w3.org/2000/svg" xmlns:xlink="http://www.w3.org/1999/xlink">
    <!-- Generator: Sketch 62 (91390) - https://sketch.com -->
    <title>d-icon-top</title>
    <desc>Created with Sketch.</desc>
    <g id="d-icon-top" stroke="none" stroke-width="1" fill="none" fill-rule="evenodd">
        <circle id="Oval" fill="#595959" cx="36" cy="36" r="35"></circle>
        <path d="M33.2819426,28 L38.7180574,28 C39.1638168,28 39.3254599,28.0464128 39.4884229,28.1335664 C39.6513858,28.2207199 39.7792801,28.3486142 39.8664336,28.5115771 C39.9535872,28.6745401 40,28.8361832 40,29.2819426 L40,50 C40,52.209139 38.209139,54 36,54 C33.790861,54 32,52.209139 32,50 L32,29.2819426 C32,28.8361832 32.0464128,28.6745401 32.1335664,28.5115771 C32.2207199,28.3486142 32.3486142,28.2207199 32.5115771,28.1335664 C32.6745401,28.0464128 32.8361832,28 33.2819426,28 Z" id="Rectangle" fill="#000000"></path>
        <path d="M36.7693065,17.3716415 L48.745789,31.7925047 C49.0986414,32.2173737 49.0402604,32.8478414 48.6153914,33.2006938 C48.3658684,33.4079219 48.0313363,33.4812565 47.7180062,33.3974145 L36.0003495,30.2619627 L36.0003495,30.2619627 L24.2819695,33.3974651 C23.748453,33.5402188 23.2002277,33.223443 23.057474,32.6899265 C22.9736367,32.3765993 23.0469722,32.0420723 23.2541977,31.7925523 L35.2307198,17.3716415 C35.5835722,16.9467725 36.2140399,16.8883915 36.6389089,17.2412439 C36.6862983,17.2806006 36.7299497,17.3242521 36.7693065,17.3716415 Z" id="Triangle" fill="#000000"></path>
    </g>
</svg>