<?xml version="1.0" encoding="UTF-8"?>
<svg width="72px" height="72px" viewBox="0 0 72 72" version="1.1" xmlns="http://www.w3.org/2000/svg" xmlns:xlink="http://www.w3.org/1999/xlink">
    <!-- Generator: Sketch 62 (91390) - https://sketch.com -->
    <title>d-icon-top</title>
    <desc>Created with Sketch.</desc>
    <g id="d-icon-top" stroke="none" stroke-width="1" fill="none" fill-rule="evenodd">
        <path d="M36,1 C55.3299662,1 71,16.6700338 71,36 C71,55.3299662 55.3299662,71 36,71 C16.6700338,71 1,55.3299662 1,36 C1,16.6700338 16.6700338,1 36,1 Z M36.64662,17.229048 C36.2253242,16.8719369 35.5943008,16.9239688 35.2371897,17.3452646 L35.2371897,17.3452646 L21.6459247,33.3793283 C21.4155936,33.6510576 21.3471984,34.024797 21.4663705,34.3604862 C21.6511379,34.880947 22.2228383,35.1530802 22.7432991,34.9683128 L22.7432991,34.9683128 L31.9997332,31.6817477 L32,50 C32,52.209139 33.790861,54 36,54 C38.209139,54 40,52.209139 40,50 L40,50 L39.9997332,31.6817477 L49.2566548,34.9682373 C49.5923466,35.0874152 49.9660919,35.0190214 50.2378245,34.7886873 C50.6591203,34.4315762 50.7111522,33.8005528 50.3540411,33.379257 L50.3540411,33.379257 L36.7628366,17.3452646 C36.7273522,17.3034025 36.6884821,17.2645324 36.64662,17.229048 Z" id="Combined-Shape" fill="#595959"></path>
    </g>
</svg>