<?xml version="1.0" encoding="UTF-8"?>
<svg width="72px" height="72px" viewBox="0 0 72 72" version="1.1" xmlns="http://www.w3.org/2000/svg" xmlns:xlink="http://www.w3.org/1999/xlink">
    <!-- Generator: Sketch 62 (91390) - https://sketch.com -->
    <title>d-icon-home</title>
    <desc>Created with Sketch.</desc>
    <g id="d-icon-home" stroke="none" stroke-width="1" fill="none" fill-rule="evenodd">
        <path d="M36,1 C55.3299662,1 71,16.6700338 71,36 C71,55.3299662 55.3299662,71 36,71 C16.6700338,71 1,55.3299662 1,36 C1,16.6700338 16.6700338,1 36,1 Z M36.6877446,16.6515476 C36.3020484,16.2861511 35.6979516,16.2861511 35.3122554,16.6515476 L35.3122554,16.6515476 L18.8218389,32.2740473 C18.6224978,32.4628968 18.5095836,32.7254076 18.5095836,33 C18.5095836,33.5522847 18.9572988,34 19.5095836,34 L19.5095836,34 L21.9995836,33.9995002 L22,52 C22,53.1045695 22.8954305,54 24,54 L24,54 L31,54 L31,38 L41,38 L41,54 L48,54 C49.1045695,54 50,53.1045695 50,52 L50,52 L49.9995836,33.9995002 L52.4904164,34 C52.7650088,34 53.0275196,33.8870857 53.2163691,33.6877446 C53.5962,33.2868121 53.5790937,32.6538782 53.1781611,32.2740473 L53.1781611,32.2740473 L48.9995836,28.3155002 L49,21 C49,20.4477153 48.5522847,20 48,20 L48,20 L44,20 C43.4477153,20 43,20.4477153 43,21 L43,21 L42.9995836,22.6315002 Z" id="Combined-Shape" fill="#595959"></path>
    </g>
</svg>