<?xml version="1.0" encoding="UTF-8"?>
<svg width="72px" height="72px" viewBox="0 0 72 72" version="1.1" xmlns="http://www.w3.org/2000/svg" xmlns:xlink="http://www.w3.org/1999/xlink">
    <!-- Generator: Sketch 62 (91390) - https://sketch.com -->
    <title>d-icon-feed</title>
    <desc>Created with Sketch.</desc>
    <g id="d-icon-feed" stroke="none" stroke-width="1" fill="none" fill-rule="evenodd">
        <circle id="Oval" fill="#595959" cx="36" cy="36" r="35"></circle>
        <path d="M25.1328415,42.7324576 C26.2737975,42.7324576 27.247834,43.1357109 28.0551772,43.9432357 C28.8620679,44.7507605 29.2659092,45.7254685 29.2659092,46.8658894 C29.2659092,48.006989 28.8624072,48.9818102 28.0551772,49.7892219 C27.2474947,50.5959548 26.2737975,51 25.1328415,51 C23.9923378,51 23.0181882,50.5959548 22.2109582,49.7892219 C21.4038412,48.9816971 21,48.006989 21,46.8658894 C21,45.7254685 21.4038412,44.7507605 22.2109582,43.9432357 C23.0183013,43.1357109 23.9923378,42.7324576 25.1328415,42.7324576 Z M23.0589003,18.0030153 C26.373429,18.1104741 29.5755471,18.7129222 32.6642369,19.8113776 C35.7529266,20.9090412 38.5512035,22.41075 41.0594069,24.3161646 C43.567271,26.2212398 45.7736395,28.4283309 47.677947,30.9366461 C49.5824807,33.4449612 51.0844171,36.2440939 52.1823993,39.3331391 C53.2795898,42.422863 53.8829202,45.6258146 53.9900156,48.9408627 C54.0331025,49.2427655 53.9368637,49.4898076 53.6988111,49.6833466 C53.4836026,49.8984905 53.236616,50.0061756 52.9566073,50.0061756 L48.8236527,50.0061756 C48.5438703,50.0061756 48.3070617,49.9093495 48.1135662,49.7158105 C47.9200708,49.5222715 47.8124099,49.2852965 47.7908099,49.0051118 C47.639949,44.6132132 46.4398474,40.5439172 44.1908443,36.7976765 C41.9415019,33.0513226 38.9441882,30.0534477 35.1986769,27.8040517 C31.4531656,25.5539771 27.3853504,24.3538317 22.9939872,24.2032763 C22.7142047,24.1817845 22.4775092,24.0739863 22.2837876,23.8804473 C22.0902921,23.6866821 21.9933747,23.449594 21.9933747,23.1697486 L21.9933747,19.0359774 C21.9933747,18.756132 22.1011487,18.5087505 22.3162441,18.2931541 C22.5099658,18.0778971 22.7572917,17.9811842 23.0589003,18.0030153 Z M23.0907914,30.4034241 C28.0845803,30.6832695 32.3463434,32.5891365 35.8764199,36.1198941 C39.4067226,39.6514434 41.3119349,43.9132603 41.591378,48.9088513 C41.6133173,49.2103016 41.5158345,49.4680897 41.3005129,49.6833466 C41.0854174,49.8984905 40.8376391,50.0053838 40.5575174,50.0053838 L36.4252414,50.0053838 C36.1453458,50.0053838 35.9087634,49.914779 35.7150418,49.7313072 C35.521207,49.5486272 35.4134331,49.3171948 35.3920593,49.036897 C35.1553638,45.7217358 33.8531427,42.8796196 31.4852829,40.5106616 C29.1175362,38.143174 26.2765116,36.8403206 22.9613044,36.6033457 C22.681522,36.5824195 22.4500286,36.4747344 22.2673896,36.2811954 C22.0842984,36.0876564 21.9928093,35.8506815 21.9928093,35.5704967 L21.9928093,31.4369517 C21.9928093,31.1569932 22.1005832,30.9092723 22.3156787,30.6941285 C22.5308873,30.4788715 22.7891828,30.3821585 23.0907914,30.4034241 Z" id="Combined-Shape" fill="#000000" fill-rule="nonzero"></path>
    </g>
</svg>