<?xml version="1.0" encoding="UTF-8"?>
<svg width="1200px" height="800px" viewBox="0 0 1200 800" version="1.1" xmlns="http://www.w3.org/2000/svg" xmlns:xlink="http://www.w3.org/1999/xlink">
    <!-- Generator: Sketch 60 (88103) - https://sketch.com -->
    <title>d-placeholder</title>
    <desc>Created with Sketch.</desc>
    <g id="d-placeholder" stroke="none" stroke-width="1" fill="none" fill-rule="evenodd">
        <rect fill="#1A1A1A" x="0" y="0" width="1200" height="800"></rect>
        <path d="M378.302338,415.656077 L378.302338,380.505308 L374.216184,380.505308 L374.216184,415.656077 L378.302338,415.656077 Z M389.956804,415.656077 L389.956225,395.577696 L390.10142,395.377615 C390.861761,394.357444 391.673157,393.523256 392.535608,392.875051 L392.86142,392.640692 C394.17424,391.738128 395.569112,391.286846 397.046035,391.286846 C398.687061,391.286846 400.032702,391.844795 401.082958,392.960692 C402.133214,394.07659 402.658343,395.504282 402.658343,397.243769 L402.658343,397.243769 L402.658343,415.656077 L406.646035,415.656077 L406.646035,397.194538 C406.646035,396.740521 406.625978,396.304282 406.585864,395.885821 L406.570314,395.750004 L406.839881,395.377615 C407.600223,394.357444 408.411619,393.523256 409.274069,392.875051 L409.599881,392.640692 C410.912702,391.738128 412.307573,391.286846 413.784496,391.286846 C415.425522,391.286846 416.771163,391.844795 417.82142,392.960692 C418.871676,394.07659 419.396804,395.504282 419.396804,397.243769 L419.396804,397.243769 L419.396804,415.656077 L423.384496,415.656077 L423.384496,397.194538 C423.384496,394.470436 422.662445,392.386333 421.218343,390.942231 C419.77424,389.498128 417.739368,388.776077 415.113727,388.776077 C412.75065,388.776077 410.756804,389.342231 409.132189,390.474538 C407.971749,391.28333 406.99132,392.339112 406.190902,393.641885 L406.145375,393.718587 L406.104496,393.588385 C405.783585,392.662117 405.320046,391.862269 404.713879,391.18884 L404.479881,390.942231 C403.035779,389.498128 401.000907,388.776077 398.375266,388.776077 C396.012189,388.776077 394.018343,389.342231 392.393727,390.474538 C391.465376,391.121571 390.657589,391.926679 389.970368,392.88986 L389.956225,392.910166 L389.956804,389.317615 L385.969112,389.317615 L385.969112,415.656077 L389.956804,415.656077 Z M437.54954,416.197615 C439.387489,416.197615 440.946463,415.926846 442.226463,415.385308 C443.506463,414.843769 444.507489,414.294026 445.22954,413.736077 C445.26236,413.736077 445.278771,413.727872 445.278771,413.711462 C445.278771,413.695051 445.295181,413.686846 445.328001,413.686846 L445.328001,413.686846 L445.328001,415.656077 L449.315694,415.656077 L449.315694,397.834538 C449.315694,394.847872 448.593642,392.599667 447.14954,391.089923 C445.705437,389.580179 443.539283,388.825308 440.651078,388.825308 C438.255181,388.825308 436.113642,389.350436 434.226463,390.400692 C432.339283,391.450949 430.821335,392.993513 429.672617,395.028385 L429.672617,395.028385 L431.543386,396.259154 C432.331078,394.880692 433.414155,393.715564 434.792617,392.763769 C436.171078,391.811974 437.746463,391.336077 439.518771,391.336077 C441.291078,391.336077 442.70236,391.885821 443.752617,392.985308 C444.802873,394.084795 445.328001,395.619154 445.328001,397.588385 L445.328001,397.588385 L445.328001,401.822231 C444.310565,401.297103 443.129027,400.862231 441.783386,400.517615 C440.437745,400.173 439.092104,400.000692 437.746463,400.000692 C435.908514,400.000692 434.275694,400.337103 432.848001,401.009923 C431.420309,401.682744 430.312617,402.634538 429.524924,403.865308 C428.737232,405.096077 428.343386,406.548385 428.343386,408.222231 C428.343386,409.830436 428.729027,411.241718 429.500309,412.456077 C430.271591,413.670436 431.346463,414.597615 432.724924,415.237615 C434.103386,415.877615 435.711591,416.197615 437.54954,416.197615 Z M438.731078,413.686846 C437.516719,413.686846 436.417232,413.473513 435.432617,413.046846 C434.448001,412.620179 433.684924,411.980179 433.143386,411.126846 C432.601848,410.273513 432.331078,409.288897 432.331078,408.173 C432.331078,407.024282 432.601848,406.023256 433.143386,405.169923 C433.684924,404.31659 434.472617,403.660179 435.506463,403.200692 C436.540309,402.741205 437.746463,402.511462 439.124924,402.511462 C440.273642,402.511462 441.364924,402.634538 442.398771,402.880692 C443.432617,403.126846 444.326976,403.414026 445.081848,403.742231 C445.147489,403.775051 445.196719,403.799667 445.22954,403.816077 C445.26236,403.832487 445.295181,403.840692 445.328001,403.840692 L445.328001,403.840692 L445.328001,411.471462 C444.474668,412.095051 443.465437,412.620179 442.300309,413.046846 C441.135181,413.473513 439.945437,413.686846 438.731078,413.686846 Z M467.714986,428.013 C471.226781,428.013 473.942678,427.102231 475.862678,425.280692 C477.782678,423.459154 478.742678,420.940179 478.742678,417.723769 L478.742678,417.723769 L478.742678,389.317615 L474.754986,389.317615 L474.75493,392.924417 C473.70028,391.797749 472.630104,390.897677 471.544401,390.2242 L471.136524,389.982231 C469.774473,389.210949 468.207293,388.825308 466.434986,388.825308 C464.236011,388.825308 462.21755,389.407872 460.379601,390.573 C458.541652,391.738128 457.09755,393.354538 456.047293,395.422231 C454.997037,397.489923 454.471909,399.853 454.471909,402.511462 C454.471909,405.169923 454.997037,407.533 456.047293,409.600692 C457.09755,411.668385 458.541652,413.27659 460.379601,414.425308 C462.21755,415.574026 464.236011,416.148385 466.434986,416.148385 C468.174473,416.148385 469.708832,415.779154 471.038063,415.040692 C472.367293,414.302231 473.655499,413.227359 474.902678,411.816077 L474.75493,411.979316 L474.754986,418.019154 C474.754986,420.212336 474.100847,421.962158 472.792569,423.268619 L472.539601,423.508385 C471.062678,424.837615 469.142678,425.502231 466.779601,425.502231 C464.908832,425.502231 463.19396,425.108385 461.634986,424.320692 C460.076011,423.533 458.689345,422.466333 457.474986,421.120692 L457.474986,421.120692 L455.85037,422.449923 C457.228832,424.287872 458.943704,425.674538 460.994986,426.609923 C463.046268,427.545308 465.286268,428.013 467.714986,428.013 Z M467.271909,413.637615 C465.630883,413.637615 464.145755,413.128897 462.816524,412.111462 C461.487293,411.094026 460.445242,409.731974 459.69037,408.025308 C458.935499,406.318641 458.558063,404.464282 458.558063,402.462231 C458.558063,400.460179 458.935499,398.614026 459.69037,396.923769 C460.445242,395.233513 461.487293,393.879667 462.816524,392.862231 C464.145755,391.844795 465.614473,391.336077 467.222678,391.336077 C468.765242,391.336077 470.209345,391.811974 471.554986,392.763769 C472.655965,393.54251 473.713002,394.584901 474.726098,395.89094 L474.75493,395.930085 L474.75493,409.158911 L474.529509,409.4402 C473.681755,410.467154 472.797817,411.321226 471.877693,412.002415 L471.48114,412.283769 C470.151909,413.186333 468.748832,413.637615 467.271909,413.637615 Z M497.535318,416.148385 C500.062497,416.148385 502.17942,415.639667 503.886087,414.622231 C505.592753,413.604795 506.954805,412.341205 507.972241,410.831462 L507.972241,410.831462 L506.199933,409.699154 C504.952753,411.077615 503.721984,412.078641 502.507625,412.702231 C501.293266,413.325821 499.881984,413.637615 498.273779,413.637615 C495.877882,413.637615 493.916856,413.079667 492.390702,411.963769 C490.864548,410.847872 489.756856,409.43659 489.067625,407.729923 C488.378395,406.023256 488.033779,404.283769 488.033779,402.511462 L488.032986,402.511462 L508.710702,402.511462 C508.710702,399.938333 508.231814,397.665403 507.274039,395.692672 L507.061471,395.274538 C505.961984,393.206846 504.501471,391.615051 502.679933,390.499154 C500.858395,389.383256 498.848138,388.825308 496.649164,388.825308 C494.318907,388.825308 492.177369,389.440692 490.224548,390.671462 C488.271728,391.902231 486.737369,393.584282 485.621471,395.717615 C484.505574,397.850949 483.947625,400.181205 483.947625,402.708385 C483.947625,405.235564 484.521984,407.524795 485.670702,409.576077 C486.81942,411.627359 488.427625,413.235564 490.495318,414.400692 C492.56301,415.565821 494.909677,416.148385 497.535318,416.148385 Z M488.335318,399.656077 C488.536343,398.737103 488.837882,397.850949 489.239933,396.997615 C490.044036,395.290949 491.118907,393.920692 492.464548,392.886846 C493.810189,391.853 495.254292,391.336077 496.796856,391.336077 C498.142497,391.336077 499.414292,391.754538 500.612241,392.591462 C501.810189,393.428385 502.778395,394.519667 503.516856,395.865308 C504.255318,397.210949 504.640959,398.58941 504.673779,400.000692 L504.673779,400.000692 L488.266185,400.000692 L488.335318,399.656077 Z M541.963914,416.148385 C545.016222,416.148385 547.822375,415.467359 550.382375,414.105308 C552.942375,412.743256 554.813145,410.995564 555.994683,408.862231 L555.994683,408.862231 L554.025452,407.828385 C552.384427,409.797615 550.603914,411.241718 548.683914,412.160692 C546.763914,413.079667 544.704427,413.539154 542.505452,413.539154 C539.682888,413.539154 537.262375,412.841718 535.243914,411.446846 C533.225452,410.051974 531.682888,408.173 530.616222,405.809923 C529.549555,403.446846 529.016222,400.788385 529.016222,397.834538 C529.016222,394.847872 529.57417,392.197615 530.690068,389.883769 C531.805965,387.569923 533.36494,385.781205 535.366991,384.517615 C537.369042,383.254026 539.715709,382.622231 542.406991,382.622231 C544.638786,382.622231 546.616222,383.081718 548.339298,384.000692 C550.062375,384.919667 551.711606,386.347359 553.286991,388.283769 L553.286991,388.283769 L555.256222,387.249923 C554.107504,385.11659 552.351606,383.377103 549.988529,382.031462 C547.625452,380.685821 545.032632,380.013 542.210068,380.013 C539.289042,380.013 536.491093,380.743256 533.816222,382.203769 C531.14135,383.664282 528.983401,385.740179 527.342375,388.431462 C525.70135,391.122744 524.880837,394.224282 524.880837,397.736077 C524.880837,400.919667 525.570068,403.922744 526.948529,406.745308 C528.326991,409.567872 530.312632,411.840692 532.905452,413.563769 C535.498273,415.286846 538.51776,416.148385 541.963914,416.148385 Z M572.227623,416.148385 C574.721982,416.148385 576.961982,415.557615 578.947623,414.376077 C580.933264,413.194538 582.492238,411.561718 583.624546,409.477615 C584.756854,407.393513 585.323008,405.055051 585.323008,402.462231 C585.323008,399.86941 584.756854,397.539154 583.624546,395.471462 C582.492238,393.403769 580.925059,391.779154 578.923008,390.597615 C576.920956,389.416077 574.689162,388.825308 572.227623,388.825308 C569.733264,388.825308 567.485059,389.416077 565.483008,390.597615 C563.480956,391.779154 561.913777,393.403769 560.781469,395.471462 C559.649162,397.539154 559.083008,399.86941 559.083008,402.462231 C559.083008,405.055051 559.649162,407.393513 560.781469,409.477615 C561.913777,411.561718 563.480956,413.194538 565.483008,414.376077 C567.485059,415.557615 569.733264,416.148385 572.227623,416.148385 Z M572.227623,413.637615 C570.586597,413.637615 569.076854,413.128897 567.698392,412.111462 C566.319931,411.094026 565.220444,409.731974 564.399931,408.025308 C563.579418,406.318641 563.169162,404.464282 563.169162,402.462231 C563.169162,400.460179 563.579418,398.614026 564.399931,396.923769 C565.220444,395.233513 566.319931,393.879667 567.698392,392.862231 C569.076854,391.844795 570.586597,391.336077 572.227623,391.336077 C573.868649,391.336077 575.378392,391.844795 576.756854,392.862231 C578.135315,393.879667 579.226597,395.233513 580.0307,396.923769 C580.834803,398.614026 581.236854,400.460179 581.236854,402.462231 C581.236854,404.464282 580.834803,406.318641 580.0307,408.025308 C579.226597,409.731974 578.135315,411.094026 576.756854,412.111462 C575.378392,413.128897 573.868649,413.637615 572.227623,413.637615 Z M594.565064,415.656077 L594.564484,395.577696 L594.70968,395.377615 C595.470022,394.357444 596.281418,393.523256 597.143868,392.875051 L597.46968,392.640692 C598.7825,391.738128 600.177372,391.286846 601.654295,391.286846 C603.295321,391.286846 604.640962,391.844795 605.691218,392.960692 C606.741474,394.07659 607.266603,395.504282 607.266603,397.243769 L607.266603,397.243769 L607.266603,415.656077 L611.254295,415.656077 L611.254295,397.194538 C611.254295,396.740521 611.234238,396.304282 611.194124,395.885821 L611.178573,395.750004 L611.448141,395.377615 C612.208483,394.357444 613.019879,393.523256 613.882329,392.875051 L614.208141,392.640692 C615.520962,391.738128 616.915833,391.286846 618.392757,391.286846 C620.033782,391.286846 621.379423,391.844795 622.42968,392.960692 C623.479936,394.07659 624.005064,395.504282 624.005064,397.243769 L624.005064,397.243769 L624.005064,415.656077 L627.992757,415.656077 L627.992757,397.194538 C627.992757,394.470436 627.270705,392.386333 625.826603,390.942231 C624.3825,389.498128 622.347628,388.776077 619.721987,388.776077 C617.35891,388.776077 615.365064,389.342231 613.740449,390.474538 C612.580009,391.28333 611.59958,392.339112 610.799162,393.641885 L610.753634,393.718587 L610.712757,393.588385 C610.391845,392.662117 609.928306,391.862269 609.322139,391.18884 L609.088141,390.942231 C607.644039,389.498128 605.609167,388.776077 602.983526,388.776077 C600.620449,388.776077 598.626603,389.342231 597.001987,390.474538 C596.073636,391.121571 595.265849,391.926679 594.578628,392.88986 L594.564484,392.910166 L594.565064,389.317615 L590.577372,389.317615 L590.577372,415.656077 L594.565064,415.656077 Z M636.939338,384.837615 C637.595749,384.837615 638.153697,384.616077 638.613184,384.173 C639.072672,383.729923 639.302415,383.180179 639.302415,382.523769 C639.302415,381.900179 639.072672,381.350436 638.613184,380.874538 C638.153697,380.398641 637.595749,380.160692 636.939338,380.160692 C636.282928,380.160692 635.724979,380.398641 635.265492,380.874538 C634.806005,381.350436 634.576261,381.900179 634.576261,382.523769 C634.576261,383.180179 634.806005,383.729923 635.265492,384.173 C635.724979,384.616077 636.282928,384.837615 636.939338,384.837615 Z M638.9578,415.656077 L638.9578,389.317615 L634.970108,389.317615 L634.970108,415.656077 L638.9578,415.656077 Z M649.775511,415.656077 L649.775496,395.613972 L650.003204,395.302231 C650.758076,394.301205 651.585882,393.482516 652.486623,392.846162 L652.827819,392.616077 C654.206281,391.729923 655.748845,391.286846 657.455511,391.286846 C659.359101,391.286846 660.852435,391.83659 661.935511,392.936077 C663.018588,394.035564 663.560127,395.471462 663.560127,397.243769 L663.560127,397.243769 L663.560127,415.656077 L667.547819,415.656077 L667.547819,397.194538 C667.547819,394.470436 666.801153,392.386333 665.307819,390.942231 C663.814486,389.498128 661.705768,388.776077 658.981665,388.776077 C656.421665,388.776077 654.181665,389.358641 652.261665,390.523769 C651.301665,391.106333 650.507819,391.797615 649.880127,392.597615 L649.775496,392.737858 L649.775511,389.317615 L645.787819,389.317615 L645.787819,415.656077 L649.775511,415.656077 Z M692.639127,392.510723 C691.580994,391.442087 690.507107,390.599256 689.417466,389.982231 C688.055415,389.210949 686.488235,388.825308 684.715927,388.825308 C682.516953,388.825308 680.498492,389.407872 678.660543,390.573 C676.822594,391.738128 675.378492,393.354538 674.328235,395.422231 C673.277979,397.489923 672.75285,399.853 672.75285,402.511462 C672.75285,405.169923 673.277979,407.533 674.328235,409.600692 C675.378492,411.668385 676.822594,413.27659 678.660543,414.425308 C680.498492,415.574026 682.516953,416.148385 684.715927,416.148385 C686.455415,416.148385 687.989774,415.779154 689.319004,415.040692 C690.648235,414.302231 691.93644,413.227359 693.18362,411.816077 L693.035092,411.979316 L693.035927,418.019154 C693.035927,420.212336 692.381788,421.962158 691.073511,423.268619 L690.820543,423.508385 C689.34362,424.837615 687.42362,425.502231 685.060543,425.502231 C683.189774,425.502231 681.474902,425.108385 679.915927,424.320692 C678.356953,423.533 676.970286,422.466333 675.755927,421.120692 L675.755927,421.120692 L674.131312,422.449923 C675.509774,424.287872 677.224645,425.674538 679.275927,426.609923 C681.327209,427.545308 683.567209,428.013 685.995927,428.013 C689.507722,428.013 692.22362,427.102231 694.14362,425.280692 C696.06362,423.459154 697.02362,420.940179 697.02362,417.723769 L697.02362,417.723769 L697.02362,389.317615 L693.035927,389.317615 L693.035092,392.923121 L692.639127,392.510723 Z M685.55285,413.637615 C683.911825,413.637615 682.426697,413.128897 681.097466,412.111462 C679.768235,411.094026 678.726184,409.731974 677.971312,408.025308 C677.21644,406.318641 676.839004,404.464282 676.839004,402.462231 C676.839004,400.460179 677.21644,398.614026 677.971312,396.923769 C678.726184,395.233513 679.768235,393.879667 681.097466,392.862231 C682.426697,391.844795 683.895415,391.336077 685.50362,391.336077 C687.046184,391.336077 688.490286,391.811974 689.835927,392.763769 C690.936906,393.54251 691.993944,394.584901 693.00704,395.89094 L693.035092,395.928789 L693.035092,409.160206 L692.81045,409.4402 C691.962697,410.467154 691.078758,411.321226 690.158635,412.002415 L689.762081,412.283769 C688.43285,413.186333 687.029774,413.637615 685.55285,413.637615 Z M727.667246,416.148385 C729.997502,416.148385 732.114426,415.770949 734.018015,415.016077 C735.921605,414.261205 737.431349,413.096077 738.547246,411.520692 C739.663143,409.945308 740.221092,407.992487 740.221092,405.662231 C740.221092,403.331974 739.654938,401.46941 738.522631,400.074538 C737.390323,398.679667 735.987246,397.662231 734.3134,397.022231 C732.639554,396.382231 730.440579,395.750436 727.716477,395.126846 C727.552374,395.094026 727.388272,395.061205 727.224169,395.028385 C727.060067,394.995564 726.912374,394.962744 726.781092,394.929923 C725.435451,394.634538 724.262118,394.273513 723.261092,393.846846 C722.260067,393.420179 721.414938,392.755564 720.725708,391.853 C720.036477,390.950436 719.691861,389.777103 719.691861,388.333 C719.691861,386.593513 720.258015,385.206846 721.390323,384.173 C722.522631,383.139154 724.385195,382.622231 726.978015,382.622231 C729.111349,382.622231 730.924682,383.057103 732.418015,383.926846 C733.911349,384.79659 735.363656,386.298128 736.774938,388.431462 L736.774938,388.431462 L738.694938,387.299154 C737.447759,384.837615 735.839554,383.007872 733.870323,381.809923 C731.901092,380.611974 729.439554,380.013 726.485708,380.013 C723.006733,380.013 720.307246,380.776077 718.387246,382.302231 C716.467246,383.828385 715.507246,386.035564 715.507246,388.923769 C715.507246,391.319667 716.114426,393.215051 717.328785,394.609923 C718.543143,396.004795 719.888785,396.973 721.365708,397.514538 C722.842631,398.056077 724.450836,398.507359 726.190323,398.868385 C726.748272,398.966846 727.28981,399.073513 727.814938,399.188385 C728.340067,399.303256 728.848785,399.426333 729.341092,399.557615 C730.818015,399.918641 732.040579,400.369923 733.008785,400.911462 C733.97699,401.453 734.723656,402.175051 735.248785,403.077615 C735.773913,403.980179 736.036477,405.104282 736.036477,406.449923 C736.036477,408.583256 735.347246,410.298128 733.968785,411.594538 C732.590323,412.890949 730.342118,413.539154 727.224169,413.539154 C724.664169,413.539154 722.530836,412.997615 720.824169,411.914538 C719.117502,410.831462 717.624169,408.977103 716.344169,406.351462 L716.344169,406.351462 L714.4734,407.483769 C715.392374,410.568897 717.058015,412.784282 719.470323,414.129923 C721.882631,415.475564 724.614938,416.148385 727.667246,416.148385 Z M756.699916,416.148385 C759.194275,416.148385 761.434275,415.557615 763.419916,414.376077 C765.405557,413.194538 766.964531,411.561718 768.096839,409.477615 C769.229146,407.393513 769.7953,405.055051 769.7953,402.462231 C769.7953,399.86941 769.229146,397.539154 768.096839,395.471462 C766.964531,393.403769 765.397351,391.779154 763.3953,390.597615 C761.393249,389.416077 759.161454,388.825308 756.699916,388.825308 C754.205557,388.825308 751.957351,389.416077 749.9553,390.597615 C747.953249,391.779154 746.386069,393.403769 745.253762,395.471462 C744.121454,397.539154 743.5553,399.86941 743.5553,402.462231 C743.5553,405.055051 744.121454,407.393513 745.253762,409.477615 C746.386069,411.561718 747.953249,413.194538 749.9553,414.376077 C751.957351,415.557615 754.205557,416.148385 756.699916,416.148385 Z M756.699916,413.637615 C755.05889,413.637615 753.549146,413.128897 752.170685,412.111462 C750.792223,411.094026 749.692736,409.731974 748.872223,408.025308 C748.05171,406.318641 747.641454,404.464282 747.641454,402.462231 C747.641454,400.460179 748.05171,398.614026 748.872223,396.923769 C749.692736,395.233513 750.792223,393.879667 752.170685,392.862231 C753.549146,391.844795 755.05889,391.336077 756.699916,391.336077 C758.340941,391.336077 759.850685,391.844795 761.229146,392.862231 C762.607608,393.879667 763.69889,395.233513 764.502993,396.923769 C765.307095,398.614026 765.709146,400.460179 765.709146,402.462231 C765.709146,404.464282 765.307095,406.318641 764.502993,408.025308 C763.69889,409.731974 762.607608,411.094026 761.229146,412.111462 C759.850685,413.128897 758.340941,413.637615 756.699916,413.637615 Z M786.520434,416.148385 C789.014793,416.148385 791.254793,415.557615 793.240434,414.376077 C795.226075,413.194538 796.785049,411.561718 797.917357,409.477615 C799.049664,407.393513 799.615818,405.055051 799.615818,402.462231 C799.615818,399.86941 799.049664,397.539154 797.917357,395.471462 C796.785049,393.403769 795.21787,391.779154 793.215818,390.597615 C791.213767,389.416077 788.981972,388.825308 786.520434,388.825308 C784.026075,388.825308 781.77787,389.416077 779.775818,390.597615 C777.773767,391.779154 776.206588,393.403769 775.07428,395.471462 C773.941972,397.539154 773.375818,399.86941 773.375818,402.462231 C773.375818,405.055051 773.941972,407.393513 775.07428,409.477615 C776.206588,411.561718 777.773767,413.194538 779.775818,414.376077 C781.77787,415.557615 784.026075,416.148385 786.520434,416.148385 Z M786.520434,413.637615 C784.879408,413.637615 783.369664,413.128897 781.991203,412.111462 C780.612741,411.094026 779.513254,409.731974 778.692741,408.025308 C777.872229,406.318641 777.461972,404.464282 777.461972,402.462231 C777.461972,400.460179 777.872229,398.614026 778.692741,396.923769 C779.513254,395.233513 780.612741,393.879667 781.991203,392.862231 C783.369664,391.844795 784.879408,391.336077 786.520434,391.336077 C788.161459,391.336077 789.671203,391.844795 791.049664,392.862231 C792.428126,393.879667 793.519408,395.233513 794.323511,396.923769 C795.127613,398.614026 795.529664,400.460179 795.529664,402.462231 C795.529664,404.464282 795.127613,406.318641 794.323511,408.025308 C793.519408,409.731974 792.428126,411.094026 791.049664,412.111462 C789.671203,413.128897 788.161459,413.637615 786.520434,413.637615 Z M808.857875,415.656077 L808.856954,395.615267 L809.085567,395.302231 C809.840439,394.301205 810.668245,393.482516 811.568986,392.846162 L811.910183,392.616077 C813.288644,391.729923 814.831208,391.286846 816.537875,391.286846 C818.441465,391.286846 819.934798,391.83659 821.017875,392.936077 C822.100952,394.035564 822.64249,395.471462 822.64249,397.243769 L822.64249,397.243769 L822.64249,415.656077 L826.630183,415.656077 L826.630183,397.194538 C826.630183,394.470436 825.883516,392.386333 824.390183,390.942231 C822.896849,389.498128 820.788131,388.776077 818.064029,388.776077 C815.504029,388.776077 813.264029,389.358641 811.344029,390.523769 C810.384029,391.106333 809.590183,391.797615 808.96249,392.597615 L808.856954,392.739154 L808.857875,389.317615 L804.870183,389.317615 L804.870183,415.656077 L808.857875,415.656077 Z" id="ImageComingSoon" fill="#FFFFFF" fill-rule="nonzero" opacity="0.101972"></path>
    </g>
</svg>