<?xml version="1.0" encoding="UTF-8" standalone="no"?>
<svg width="18px" height="18px" viewBox="0 0 18 18" version="1.1" xmlns="http://www.w3.org/2000/svg" xmlns:xlink="http://www.w3.org/1999/xlink" xmlns:sketch="http://www.bohemiancoding.com/sketch/ns">
    <!-- Generator: Sketch 3.2.2 (9983) - http://www.bohemiancoding.com/sketch -->
    <title>email-icon</title>
    <desc>Created with Sketch.</desc>
    <defs></defs>
    <g id="Page-1" stroke="none" stroke-width="1" fill="none" fill-rule="evenodd" sketch:type="MSPage">
        <g id="email-icon" sketch:type="MSArtboardGroup" fill="#323033">
            <path d="M0,5.00335124 C0,3.34464615 1.35292554,2 2.99253976,2 L15.0074602,2 C16.6601943,2 18,3.34237885 18,5.00335124 L18,12.9966488 C18,14.6553538 16.6470745,16 15.0074602,16 L2.99253976,16 C1.33980569,16 0,14.6576211 0,12.9966488 L0,5.00335124 Z M8.28361335,11.3040472 C8.67910585,11.6884113 9.3224052,11.6863905 9.71581838,11.3040472 L15.0793281,6.09145631 C16.2678503,4.93637688 15.8840815,4 14.2308683,4 L3.76856345,4 C2.11144988,4 1.72847575,4.93335855 2.92010362,6.09145631 L8.28361335,11.3040472 Z" id="Rectangle-9" sketch:type="MSShapeGroup"></path>
        </g>
    </g>
</svg>