<?xml version="1.0" encoding="UTF-8" standalone="no"?>
<svg width="18px" height="18px" viewBox="0 0 18 18" version="1.1" xmlns="http://www.w3.org/2000/svg" xmlns:xlink="http://www.w3.org/1999/xlink" xmlns:sketch="http://www.bohemiancoding.com/sketch/ns">
    <!-- Generator: Sketch 3.2.2 (9983) - http://www.bohemiancoding.com/sketch -->
    <title>linkedin-icon</title>
    <desc>Created with Sketch.</desc>
    <defs></defs>
    <g id="Page-1" stroke="none" stroke-width="1" fill="none" fill-rule="evenodd" sketch:type="MSPage">
        <g id="linkedin-icon" sketch:type="MSArtboardGroup" fill="#323033">
            <path d="M5.04,16 L5.04,6 L2,6 L2,16 L5.04,16 Z M2.00042454,3.50980392 C1.98179363,4.33333333 2.57798255,5 3.47226591,5 C4.40381109,5 5,4.33333333 5,3.50980392 C4.9813691,2.64705882 4.40381109,2 3.49089682,2 C2.57798255,2 1.98179363,2.64705882 2.00042454,3.50980392 Z M6.14081663,16 L9.04296291,16 L9.04296291,10.36 C9.04296291,10.08 9.08114904,9.78 9.15752131,9.6 C9.34845199,9.04 9.82577868,8.46 10.6276875,8.46 C11.6778062,8.46 12.0978537,9.32 12.0978537,10.58 L12.0978537,16 L15,16 L15,10.2 C15,7.32 13.5680199,6 11.6587132,6 C10.1121747,6 9.15752131,6.94 8.77565996,7.56 L8.71838076,7.56 L8.58472928,6.22 L6.06444436,6.22 C6.10263049,7.08 6.14081663,8.12 6.14081663,9.34 L6.14081663,16 Z" id="in" sketch:type="MSShapeGroup"></path>
        </g>
    </g>
</svg>